<?xml version="1.0" encoding="utf-8"?>
<!-- Generator: Adobe Illustrator 14.0.0, SVG Export Plug-In . SVG Version: 6.00 Build 43363)  -->
<!DOCTYPE svg PUBLIC "-//W3C//DTD SVG 1.1//EN" "http://www.w3.org/Graphics/SVG/1.1/DTD/svg11.dtd">
<svg version="1.1" id="Layer_1" xmlns="http://www.w3.org/2000/svg" xmlns:xlink="http://www.w3.org/1999/xlink" x="0px" y="0px"
	 viewBox="19.612 16.083 150.975 28.819" enable-background="new 0 0 189.516 62.903"
	 xml:space="preserve">
<path fill="#005695" stroke="#005695" stroke-width="0.2px" d="M162.173,23.72l-3.184,1.302l0.162,0.406c0.363-0.123,0.627-0.185,0.789-0.185
	c0.203,0,0.363,0.05,0.483,0.15s0.209,0.29,0.267,0.569c0.059,0.279,0.088,1.026,0.088,2.243v9.634c0,0.666-0.047,1.107-0.14,1.325
	c-0.093,0.217-0.217,0.363-0.372,0.44c-0.271,0.147-0.643,0.222-1.115,0.222v0.418h5.275v-0.418c-0.542,0-0.924-0.061-1.145-0.181
	s-0.371-0.269-0.453-0.447c-0.081-0.179-0.122-0.632-0.122-1.359v-5.625c0.573-0.612,1.065-1.019,1.476-1.22
	c0.411-0.201,0.807-0.303,1.186-0.303c0.371,0,0.689,0.092,0.953,0.273s0.455,0.455,0.576,0.819c0.119,0.363,0.18,1.127,0.18,2.29
	v3.765c0,0.604-0.012,0.968-0.035,1.092c-0.078,0.295-0.213,0.518-0.407,0.668c-0.194,0.151-0.538,0.228-1.034,0.228h-0.244v0.418
	h5.229v-0.418c-0.496,0-0.836-0.055-1.022-0.163c-0.186-0.108-0.317-0.255-0.395-0.441c-0.109-0.248-0.163-0.709-0.163-1.383v-3.765
	c0-1.317-0.073-2.225-0.222-2.721c-0.209-0.712-0.53-1.234-0.963-1.568c-0.435-0.333-0.953-0.499-1.559-0.499
	c-0.503,0-1.007,0.133-1.51,0.4c-0.504,0.268-1.186,0.873-2.046,1.818V23.72H162.173z M155.502,26.103
	c-0.317,0.782-0.565,1.32-0.743,1.615c-0.35,0.558-0.746,1.04-1.191,1.447c-0.445,0.405-0.881,0.694-1.308,0.864v0.385h1.685v7.157
	c0,0.768,0.082,1.336,0.244,1.703c0.164,0.368,0.414,0.651,0.756,0.849c0.34,0.197,0.689,0.297,1.045,0.297
	c0.527,0,1.039-0.192,1.535-0.576c0.496-0.383,0.879-0.954,1.15-1.714h-0.453c-0.132,0.31-0.318,0.545-0.558,0.703
	c-0.24,0.159-0.488,0.238-0.744,0.238c-0.31,0-0.563-0.119-0.761-0.36c-0.198-0.24-0.297-0.705-0.297-1.395v-6.902h2.486V29.6
	h-2.486v-3.497H155.502z M149.774,23.72l-3.172,1.302l0.197,0.406c0.311-0.123,0.564-0.185,0.768-0.185
	c0.186,0,0.338,0.05,0.459,0.15c0.119,0.101,0.207,0.288,0.261,0.563c0.055,0.274,0.082,1.013,0.082,2.214v9.669
	c0,0.658-0.052,1.104-0.151,1.336c-0.102,0.233-0.24,0.399-0.419,0.5c-0.178,0.101-0.511,0.151-0.999,0.151v0.418h5.219v-0.418
	c-0.551,0-0.927-0.057-1.127-0.169c-0.203-0.112-0.352-0.276-0.449-0.493c-0.097-0.218-0.145-0.659-0.145-1.325V23.72H149.774z
	 M139.874,39.118c-0.434,0-0.818-0.185-1.151-0.553s-0.499-0.831-0.499-1.389c0-0.441,0.131-0.848,0.396-1.22
	c0.263-0.372,0.7-0.729,1.313-1.069c0.34-0.194,1.096-0.523,2.266-0.988v4.057C141.237,38.73,140.462,39.118,139.874,39.118
	 M142.547,40.059c0.224,0.264,0.526,0.396,0.906,0.396c0.79,0,1.618-0.581,2.487-1.743v-0.65c-0.465,0.464-0.779,0.747-0.941,0.849
	c-0.094,0.054-0.202,0.08-0.326,0.08c-0.115,0-0.219-0.037-0.309-0.115c-0.088-0.077-0.152-0.23-0.191-0.459
	c-0.038-0.229-0.059-0.851-0.059-1.865v-3.614c0-1.031-0.068-1.712-0.209-2.046c-0.217-0.511-0.553-0.887-1.01-1.127
	c-0.604-0.317-1.379-0.476-2.324-0.476c-1.232,0-2.189,0.278-2.871,0.836s-1.022,1.17-1.022,1.837c0,0.348,0.091,0.623,0.272,0.825
	c0.183,0.2,0.416,0.302,0.703,0.302c0.295,0,0.533-0.098,0.716-0.291c0.182-0.193,0.272-0.468,0.272-0.825l-0.022-0.674
	c0-0.341,0.147-0.644,0.44-0.906c0.287-0.264,0.674-0.395,1.162-0.395c0.643,0,1.133,0.196,1.471,0.592
	c0.336,0.395,0.506,1.124,0.506,2.185v0.418c-1.829,0.667-3.137,1.232-3.922,1.697c-0.787,0.465-1.34,0.961-1.656,1.488
	c-0.233,0.379-0.35,0.829-0.35,1.348c0,0.821,0.238,1.483,0.715,1.987c0.477,0.503,1.082,0.755,1.819,0.755
	c0.472,0,0.918-0.097,1.337-0.29c0.278-0.132,0.965-0.62,2.057-1.465C142.206,39.347,142.321,39.796,142.547,40.059 M128.301,30.85
	c0.507-0.5,1.082-0.75,1.726-0.75c0.418,0,0.819,0.124,1.203,0.372c0.383,0.248,0.672,0.589,0.865,1.023
	c0.124,0.278,0.205,0.759,0.244,1.44h-4.927C127.497,32.045,127.793,31.349,128.301,30.85 M134.769,33.609
	c0-1.316-0.385-2.368-1.152-3.154c-0.766-0.787-1.746-1.181-2.939-1.181c-1.41,0-2.582,0.511-3.515,1.528
	c-0.935,1.019-1.4,2.439-1.4,4.259c0,1.683,0.455,3.021,1.365,4.016s2.005,1.493,3.282,1.493c1.179,0,2.158-0.436,2.941-1.308
	c0.782-0.871,1.254-1.838,1.418-2.899l-0.361-0.232c-0.348,0.93-0.78,1.587-1.295,1.97c-0.516,0.384-1.123,0.575-1.819,0.575
	c-1.046,0-1.956-0.449-2.731-1.348c-0.774-0.898-1.158-2.139-1.149-3.719H134.769z M113.164,27.288c0-0.775,0.047-1.288,0.139-1.54
	c0.093-0.252,0.261-0.44,0.5-0.564c0.333-0.178,0.687-0.267,1.058-0.267h0.569v-0.431h-6.752v0.431h0.558
	c0.373,0,0.729,0.093,1.069,0.278c0.24,0.141,0.399,0.307,0.478,0.5c0.1,0.256,0.15,0.786,0.15,1.593v10.168
	c0,0.945-0.093,1.542-0.279,1.79c-0.295,0.38-0.767,0.568-1.418,0.568h-0.558v0.431h6.752v-0.431h-0.569
	c-0.371,0-0.725-0.093-1.058-0.278c-0.248-0.14-0.411-0.307-0.487-0.499c-0.102-0.257-0.151-0.783-0.151-1.581v-4.799h7.321v4.799
	c0,0.945-0.098,1.542-0.291,1.79c-0.295,0.38-0.762,0.568-1.405,0.568h-0.558v0.431h6.739v-0.431h-0.558
	c-0.372,0-0.729-0.093-1.069-0.278c-0.239-0.14-0.399-0.307-0.476-0.499c-0.102-0.257-0.151-0.783-0.151-1.581V27.288
	c0-0.775,0.044-1.288,0.134-1.54c0.088-0.252,0.258-0.44,0.506-0.564c0.332-0.178,0.685-0.267,1.057-0.267h0.558v-0.431h-6.739
	v0.431h0.558c0.37,0,0.724,0.093,1.057,0.278c0.248,0.141,0.411,0.307,0.488,0.5c0.101,0.256,0.151,0.786,0.151,1.593v4.509h-7.321
	V27.288z M101.483,30.85c0.506-0.5,1.082-0.75,1.725-0.75c0.419,0,0.82,0.124,1.203,0.372c0.384,0.248,0.672,0.589,0.865,1.023
	c0.125,0.278,0.205,0.759,0.244,1.44h-4.927C100.679,32.045,100.976,31.349,101.483,30.85 M107.95,33.609
	c0-1.316-0.385-2.368-1.151-3.154c-0.767-0.787-1.747-1.181-2.94-1.181c-1.41,0-2.582,0.511-3.515,1.528
	c-0.935,1.019-1.401,2.439-1.401,4.259c0,1.683,0.457,3.021,1.367,4.016c0.909,0.995,2.004,1.493,3.282,1.493
	c1.177,0,2.157-0.436,2.94-1.308c0.781-0.871,1.255-1.838,1.418-2.899l-0.36-0.232c-0.349,0.93-0.78,1.587-1.296,1.97
	c-0.516,0.384-1.122,0.575-1.818,0.575c-1.047,0-1.957-0.449-2.731-1.348c-0.775-0.898-1.158-2.139-1.15-3.719H107.95z
	 M97.062,36.038c-0.404,0.938-0.817,1.585-1.244,1.94c-0.604,0.52-1.286,0.779-2.044,0.779c-1.062,0-1.905-0.486-2.528-1.459
	c-0.624-0.972-0.936-2.093-0.936-3.364c0-1.247,0.314-2.25,0.942-3.01c0.472-0.573,1.096-0.86,1.871-0.86
	c0.48,0,0.856,0.116,1.127,0.35c0.271,0.239,0.428,0.589,0.471,1.046c0.042,0.457,0.129,0.767,0.261,0.929
	c0.233,0.295,0.577,0.442,1.034,0.442c0.342,0,0.606-0.092,0.797-0.273c0.189-0.182,0.284-0.42,0.284-0.715
	c0-0.596-0.337-1.171-1.011-1.725c-0.674-0.555-1.534-0.831-2.58-0.831c-1.394,0-2.589,0.522-3.585,1.568
	c-0.995,1.045-1.493,2.405-1.493,4.078c0,1.729,0.449,3.101,1.348,4.114c0.899,1.015,1.952,1.522,3.161,1.522
	c1.015,0,1.941-0.378,2.777-1.133c0.837-0.756,1.399-1.834,1.685-3.236L97.062,36.038z M81.436,39.118
	c-0.434,0-0.817-0.185-1.15-0.553s-0.5-0.831-0.5-1.389c0-0.441,0.132-0.848,0.395-1.22c0.264-0.372,0.701-0.729,1.314-1.069
	c0.34-0.194,1.096-0.523,2.266-0.988v4.057C82.8,38.73,82.025,39.118,81.436,39.118 M84.109,40.059
	c0.225,0.264,0.527,0.396,0.907,0.396c0.79,0,1.619-0.581,2.487-1.743v-0.65c-0.465,0.464-0.779,0.747-0.942,0.849
	c-0.093,0.054-0.201,0.08-0.325,0.08c-0.116,0-0.219-0.037-0.308-0.115c-0.089-0.077-0.153-0.23-0.192-0.459
	s-0.058-0.851-0.058-1.865v-3.614c0-1.031-0.07-1.712-0.209-2.046c-0.217-0.511-0.554-0.887-1.011-1.127
	c-0.604-0.317-1.379-0.476-2.324-0.476c-1.232,0-2.189,0.278-2.871,0.836c-0.682,0.558-1.022,1.17-1.022,1.837
	c0,0.348,0.091,0.623,0.273,0.825c0.182,0.2,0.416,0.302,0.703,0.302c0.294,0,0.532-0.098,0.715-0.291
	c0.181-0.193,0.273-0.468,0.273-0.825l-0.024-0.674c0-0.341,0.147-0.644,0.442-0.906c0.286-0.264,0.674-0.395,1.162-0.395
	c0.643,0,1.133,0.196,1.47,0.592c0.337,0.395,0.506,1.124,0.506,2.185v0.418c-1.829,0.667-3.136,1.232-3.922,1.697
	c-0.787,0.465-1.339,0.961-1.656,1.488c-0.233,0.379-0.349,0.829-0.349,1.348c0,0.821,0.238,1.483,0.715,1.987
	c0.476,0.503,1.082,0.755,1.818,0.755c0.473,0,0.918-0.097,1.337-0.29c0.279-0.132,0.964-0.62,2.057-1.465
	C83.768,39.347,83.884,39.796,84.109,40.059 M69.863,30.85c0.508-0.5,1.083-0.75,1.726-0.75c0.419,0,0.819,0.124,1.203,0.372
	c0.383,0.248,0.672,0.589,0.866,1.023c0.124,0.278,0.205,0.759,0.244,1.44h-4.928C69.06,32.045,69.356,31.349,69.863,30.85
	 M76.331,33.609c0-1.316-0.384-2.368-1.151-3.154c-0.767-0.787-1.747-1.181-2.94-1.181c-1.41,0-2.582,0.511-3.515,1.528
	c-0.934,1.019-1.401,2.439-1.401,4.259c0,1.683,0.455,3.021,1.366,4.016c0.91,0.995,2.004,1.493,3.283,1.493
	c1.177,0,2.157-0.436,2.94-1.308c0.782-0.871,1.255-1.838,1.418-2.899l-0.361-0.232c-0.348,0.93-0.78,1.587-1.295,1.97
	c-0.516,0.384-1.122,0.575-1.819,0.575c-1.046,0-1.956-0.449-2.731-1.348s-1.158-2.139-1.151-3.719H76.331z M58.885,25.648
	c0.62-0.146,1.127-0.221,1.523-0.221c0.65,0,1.231,0.146,1.743,0.436c0.511,0.291,0.906,0.729,1.185,1.313
	c0.279,0.585,0.418,1.219,0.418,1.9c0,0.991-0.292,1.8-0.877,2.423c-0.585,0.624-1.28,0.936-2.086,0.936
	c-0.225,0-0.496-0.019-0.813-0.058c-0.318-0.039-0.682-0.098-1.093-0.174V25.648z M60.303,33.109
	c0.442,0.055,0.852,0.081,1.232,0.081c1.549,0,2.748-0.401,3.597-1.208c0.848-0.806,1.272-1.852,1.272-3.138
	c0-0.945-0.279-1.762-0.837-2.452c-0.557-0.688-1.243-1.179-2.057-1.47c-0.813-0.291-1.925-0.437-3.335-0.437h-5.776v0.431h0.593
	c0.597,0,1.046,0.171,1.348,0.511c0.209,0.241,0.314,0.857,0.314,1.848v10.181c0,0.898-0.078,1.469-0.232,1.709
	c-0.287,0.434-0.764,0.649-1.43,0.649h-0.593v0.431h6.752v-0.431h-0.604c-0.597,0-1.042-0.17-1.336-0.511
	c-0.217-0.24-0.326-0.856-0.326-1.848v-4.59C59.389,32.975,59.861,33.056,60.303,33.109"/>
<rect x="19.612" y="16.083" fill="#005695" width="28.104" height="28.819"/>
<path fill="#FFFFFF" d="M31.144,39.219c2.001,0.439,3.1-0.172,3.1-0.172c-0.575,1.232-1.888,1.318-2.462,1.263
	c-4.261-0.416-5.556-4.04-5.753-6.104c-0.486-5.098-2.253-4.442-2.804-4.354c-0.54,0.081-0.415-0.128-0.369-0.203
	c1.942-3.863,4.181-1.96,5.951-0.608c2.139,1.633,2.871,1.808,4.619-0.348c1.744-2.156,4.041-4.895,6.926-4.839
	c2.658,0.051,4.267,2.054,4.487,2.339c0.175,0.226-1.438-1.405-4.17-1.32c-3.372,0.102-5.49,4.021-6.439,4.941
	c-0.829,0.81-2.824,2.455-6.019-0.368c-3.322-2.935-4.602-0.081-4.602-0.081s2.544-0.108,2.956,3.51
	C26.842,35.307,27.916,38.504,31.144,39.219"/>
<path fill="#FFFFFF" d="M38.894,29.966c1.35-1.59,3.274-3.574,6.858-0.083c0,0-0.634-1.917-2.484-2.716
	c-2.807-1.204-4.558,0.637-6.167,2.769c-1.986,2.625-4.841,2.187-4.841,2.187C33.446,32.699,35.687,33.754,38.894,29.966"/>
<path fill="#FFFFFF" d="M45.72,32.713c-4.206-2.872-4.777-0.331-7.418,1.107c-2.031,1.109-4.132,0.092-4.132,0.092
	c2.263,0.449,3.373-0.286,4.145-0.9c1.389-1.1,2.042-2.89,4.262-2.689C44.014,30.449,45.204,31.837,45.72,32.713"/>
<path fill="#FFFFFF" d="M28.312,34.289c0,0,2.076-1.395,3.848-0.322c1.111,0.671,1.669,1.665,2.738,3.088
	c1.075,1.425,2.718,4.159,7.461,1.302c-2.965,5.122-6.235,1.406-8.048-1.077C33.081,35.595,32.306,33.442,28.312,34.289"/>
</svg>
