<?xml version="1.0" encoding="utf-8"?>
<!-- Generator: Adobe Illustrator 14.0.0, SVG Export Plug-In . SVG Version: 6.00 Build 43363)  -->
<!DOCTYPE svg PUBLIC "-//W3C//DTD SVG 1.1//EN" "http://www.w3.org/Graphics/SVG/1.1/DTD/svg11.dtd">
<svg version="1.1" id="Layer_1" xmlns="http://www.w3.org/2000/svg" xmlns:xlink="http://www.w3.org/1999/xlink" x="0px" y="0px"
	 viewBox="19.612 16.083 28.104 28.819" 
	 xml:space="preserve">

<rect x="19.612" y="16.083" fill="#005695" width="28.104" height="28.819"/>
<path fill="#FFFFFF" d="M31.144,39.219c2.001,0.439,3.1-0.172,3.1-0.172c-0.575,1.232-1.888,1.318-2.462,1.263
	c-4.261-0.416-5.556-4.04-5.753-6.104c-0.486-5.098-2.253-4.442-2.804-4.354c-0.54,0.081-0.415-0.128-0.369-0.203
	c1.942-3.863,4.181-1.96,5.951-0.608c2.139,1.633,2.871,1.808,4.619-0.348c1.744-2.156,4.041-4.895,6.926-4.839
	c2.658,0.051,4.267,2.054,4.487,2.339c0.175,0.226-1.438-1.405-4.17-1.32c-3.372,0.102-5.49,4.021-6.439,4.941
	c-0.829,0.81-2.824,2.455-6.019-0.368c-3.322-2.935-4.602-0.081-4.602-0.081s2.544-0.108,2.956,3.51
	C26.842,35.307,27.916,38.504,31.144,39.219"/>
<path fill="#FFFFFF" d="M38.894,29.966c1.35-1.59,3.274-3.574,6.858-0.083c0,0-0.634-1.917-2.484-2.716
	c-2.807-1.204-4.558,0.637-6.167,2.769c-1.986,2.625-4.841,2.187-4.841,2.187C33.446,32.699,35.687,33.754,38.894,29.966"/>
<path fill="#FFFFFF" d="M45.72,32.713c-4.206-2.872-4.777-0.331-7.418,1.107c-2.031,1.109-4.132,0.092-4.132,0.092
	c2.263,0.449,3.373-0.286,4.145-0.9c1.389-1.1,2.042-2.89,4.262-2.689C44.014,30.449,45.204,31.837,45.72,32.713"/>
<path fill="#FFFFFF" d="M28.312,34.289c0,0,2.076-1.395,3.848-0.322c1.111,0.671,1.669,1.665,2.738,3.088
	c1.075,1.425,2.718,4.159,7.461,1.302c-2.965,5.122-6.235,1.406-8.048-1.077C33.081,35.595,32.306,33.442,28.312,34.289"/>
</svg>
