<svg height="25" viewBox="0 0 25 25" width="25" xmlns="http://www.w3.org/2000/svg"><path d="m348.34003 95.9914063c1.181018-1.6127862 1.887441-3.5937969 1.887441-5.7413699 0-5.3759851-4.374051-9.7500364-9.750036-9.7500364s-9.74999 4.3740513-9.74999 9.7500364 4.374051 9.7500366 9.750037 9.7500366c2.147573 0 4.12877-.7065165 5.741556-1.8875351l6.387462 6.3874621 2.121085-2.121085c0-.000047-6.387555-6.3875087-6.387555-6.3875087zm-7.862548 1.0086373c-3.722187 0-6.750008-3.0278205-6.750008-6.7500072 0-3.7221868 3.027821-6.7500073 6.750008-6.7500073 3.722186 0 6.750007 3.0278205 6.750007 6.7500073 0 3.7221867-3.027867 6.7500072-6.750007 6.7500072z" fill="#005694" fill-rule="evenodd" transform="translate(-330 -80)"/></svg>