<svg height="25" viewBox="0 0 25 25" width="25" xmlns="http://www.w3.org/2000/svg"><path d="m13.211306 12.5714286c5.9530438.0125727 10.7758103 4.8354235 10.7885417 10.7885714.0072101.3303742-.2424877.6100407-.5715775.64h-22.85674316c-.31558577 0-.57147313-.2558373-.57147313-.5714286-.00905284-2.8704045 1.12246404-5.6268612 3.14568139-7.6629736 2.02321735-2.0361123 4.77240149-3.1850905 7.6427559-3.1941692zm-1.2114074-12.5714286c3.1558577 0 5.7141858 2.55837286 5.7141858 5.71428571 0 3.15591286-2.5583281 5.71428569-5.7141858 5.71428569-3.15585765 0-5.71418577-2.55837283-5.71418577-5.71428569 0-3.15591285 2.55832812-5.71428571 5.71418577-5.71428571z" fill="#005694" fill-rule="evenodd" transform="translate(.45503 .5)"/></svg>